<?xml version="1.0" encoding="UTF-8"?>
<svg version="1.1" xmlns="http://www.w3.org/2000/svg" width="980" height="980">
<path d="M0 0 C0.99161133 0.00060425 1.98322266 0.0012085 3.00488281 0.00183105 C18.81534126 0.02791042 34.46114491 0.41712834 50.1875 2.1875 C51.30801758 2.31108887 52.42853516 2.43467773 53.58300781 2.56201172 C102.72742142 8.18845374 150.10224358 21.9814789 195.1875 42.1875 C196.08049805 42.58437012 196.97349609 42.98124023 197.89355469 43.39013672 C241.66754667 62.96141422 285.89781357 91.82473847 319.3984375 126.39453125 C321.25667036 128.25682138 323.19223825 129.97342379 325.1875 131.6875 C331.34758537 137.00373806 336.92769915 142.77386591 342.22265625 148.9453125 C344.1187526 151.10904869 346.07036798 153.21259332 348.03710938 155.31201172 C353.9830276 161.68293455 359.3939757 168.35813268 364.69677734 175.26855469 C366.23899774 177.2537909 367.81269434 179.21027888 369.39453125 181.1640625 C427.93741463 253.98238978 459.72424675 346.72168764 466.1875 451.1875 C466.20796387 452.22229492 466.22842773 453.25708984 466.24951172 454.32324219 C467.47338843 525.14625642 453.78519342 594.78156865 424.1875 659.1875 C423.75856445 660.12899902 423.32962891 661.07049805 422.88769531 662.04052734 C409.1788044 691.98363119 392.20106814 720.04473883 372.1875 746.1875 C371.45104248 747.15357178 371.45104248 747.15357178 370.69970703 748.13916016 C365.69987535 754.67501192 360.52848253 761.05242412 355.1875 767.3125 C354.74970215 767.82594971 354.3119043 768.33939941 353.86083984 768.8684082 C345.37855872 778.69744548 336.45941823 788.10229357 327.28076172 797.27954102 C325.68296107 798.87954519 324.09338449 800.48743615 322.50390625 802.09570312 C316.77148468 807.85857932 310.9377861 813.23668597 304.55712891 818.28540039 C302.30689809 820.09165923 300.17840967 821.97688646 298.0625 823.9375 C238.53944595 877.2448723 158.34108125 911.17184899 -25.22460938 930.671875 C-126.04364166 924.61364572 -221.4446492 887.24682908 -298.8125 822.1875 C-299.37066406 821.71957031 -299.92882812 821.25164063 -300.50390625 820.76953125 C-306.90874011 815.38836414 -313.19283168 809.99742957 -319.01953125 803.984375 C-320.89938365 802.10042706 -322.85837839 800.36121518 -324.875 798.625 C-330.65473028 793.63546722 -335.83758937 788.2503983 -340.8125 782.46484375 C-342.7227326 780.28971562 -344.68629048 778.1725036 -346.66503906 776.05981445 C-352.65870837 769.63787632 -358.10524019 762.89694805 -363.45507812 755.93457031 C-364.75694378 754.25900365 -366.08291832 752.60694816 -367.421875 750.9609375 C-384.59817713 729.75254956 -399.01042762 706.25197459 -411.8125 682.1875 C-412.27237305 681.32511719 -412.73224609 680.46273437 -413.20605469 679.57421875 C-440.24583957 628.38719199 -456.71009431 571.68722451 -462.8125 514.1875 C-462.96912109 512.74624756 -462.96912109 512.74624756 -463.12890625 511.27587891 C-466.33933973 480.32465866 -466.35542628 448.10627108 -462.8125 417.1875 C-462.68359375 416.02750488 -462.5546875 414.86750977 -462.421875 413.67236328 C-453.23836237 333.13593366 -423.52758207 256.67147982 -375.8125 191.1875 C-375.3175 190.50558594 -374.8225 189.82367188 -374.3125 189.12109375 C-365.20887249 176.62731329 -355.32385845 164.95187546 -344.92578125 153.51953125 C-343.55591044 152.00786235 -342.19826316 150.4849896 -340.85546875 148.94921875 C-335.85495426 143.26029692 -330.59535767 137.86441523 -325.25 132.5 C-324.54166016 131.78706787 -323.83332031 131.07413574 -323.10351562 130.33959961 C-318.50158198 125.75099408 -313.7379129 121.42427244 -308.8125 117.1875 C-307.65601129 116.16580392 -306.50101597 115.14241448 -305.34765625 114.1171875 C-279.84866281 91.61314021 -251.57075166 72.57327255 -221.8125 56.1875 C-220.91289551 55.6910498 -220.01329102 55.19459961 -219.08642578 54.68310547 C-152.26713377 18.09867941 -75.98624853 -0.08584221 0 0 Z " fill="#845ADB" transform="translate(489.8125,24.8125)"/>
<path d="M0 0 C1.80841327 0.52145963 3.616991 1.04234949 5.42578125 1.5625 C7.05493328 2.04083035 8.68384627 2.51997574 10.3125 3 C11.12783203 3.23460937 11.94316406 3.46921875 12.78320312 3.7109375 C18.42717144 5.38122884 23.66523578 7.52820936 29 10 C30.79598924 10.79367407 32.59291585 11.58522934 34.390625 12.375 C63.19351374 25.2054446 89.51951266 41.56159077 112.76953125 62.953125 C114.83296274 64.84671187 116.93574581 66.67826164 119.0625 68.5 C126.27001475 74.79204412 132.86290058 81.6679644 139 89 C139.69633545 89.82564453 139.69633545 89.82564453 140.40673828 90.66796875 C156.47914504 109.79247894 171.61043435 131.73020687 181 155 C181.34417969 155.80050781 181.68835938 156.60101563 182.04296875 157.42578125 C188.78397152 173.1984188 195.20880679 189.52641824 198.48901367 206.39672852 C198.96702222 208.83199138 199.47681708 211.25769469 200 213.68359375 C200.33333333 215.26822917 200.66666667 216.85286458 201 218.4375 C201.165 219.18708984 201.33 219.93667969 201.5 220.70898438 C204.7415251 236.34681052 205.35118922 252.1751645 205.31567383 268.09790039 C205.31249873 271.06368339 205.33614775 274.0284786 205.36132812 276.99414062 C205.39533966 287.69340463 204.74636652 297.86030638 202.68798828 308.3684082 C202.12899368 311.31909832 201.7476789 314.13408016 201.5625 317.125 C200.47003339 329.63481371 195.96010238 342.16363656 192 354 C191.73767578 354.79583496 191.47535156 355.59166992 191.20507812 356.41162109 C183.62262896 379.16334645 173.34206898 401.04512568 160 421 C159.59217285 421.61053223 159.1843457 422.22106445 158.76416016 422.85009766 C149.08899007 437.15844779 137.95973767 450.55277302 126 463 C125.484375 463.53753906 124.96875 464.07507813 124.4375 464.62890625 C117.35412222 471.96769429 110.07051866 478.74017463 102 485 C100.73416061 486.00624078 99.46855135 487.01277109 98.203125 488.01953125 C75.03534795 506.27999678 49.342565 520.0500791 22 531 C21.21737793 531.31807617 20.43475586 531.63615234 19.62841797 531.96386719 C7.21581685 536.96443939 -5.43081885 540.36477503 -18.4543457 543.39355469 C-20.57138184 543.89789129 -22.67469533 544.45941435 -24.7734375 545.03515625 C-43.99015279 549.82776167 -64.67518912 550.39281445 -84.375 550.375 C-85.62855789 550.3774472 -85.62855789 550.3774472 -86.90744019 550.37994385 C-103.08270035 550.37635966 -119.26434029 549.31726216 -135.125 546 C-135.95257813 545.835 -136.78015625 545.67 -137.6328125 545.5 C-139.27704582 545.17115334 -140.92024198 544.83706991 -142.56225586 544.49731445 C-144.21669448 544.15979903 -145.8739486 543.83585566 -147.53344727 543.52416992 C-153.81067282 542.33531515 -159.7792735 540.62711767 -165.83007812 538.59179688 C-174.706446 535.80208126 -181.25294684 538.67685983 -189.4375 542.3125 C-190.79198242 542.8993457 -190.79198242 542.8993457 -192.17382812 543.49804688 C-196.23005642 545.26915887 -200.23608629 547.09158769 -204.17578125 549.109375 C-207.93844754 551.02137818 -211.78130681 552.51275245 -215.75 553.9375 C-221.73173134 556.12470841 -227.61095934 558.46787332 -233.44921875 561.01953125 C-238.27742988 562.87539801 -242.8461633 563.20697964 -248 563.3125 C-249.794375 563.36857422 -249.794375 563.36857422 -251.625 563.42578125 C-256.27879419 562.83867064 -258.39363472 560.79791019 -261.44140625 557.38671875 C-270.89680108 543.05537119 -269.49121386 525.95025099 -269.25 509.5625 C-269.22989592 507.17384317 -269.2116521 504.78516992 -269.1953125 502.39648438 C-269.15164718 496.59729262 -269.08504777 490.7987249 -269 485 C-269.62303009 484.70006638 -270.24606018 484.40013275 -270.88796997 484.09111023 C-273.1712502 482.91152927 -274.74465054 481.58706489 -276.6171875 479.83203125 C-277.29982666 479.19346191 -277.98246582 478.55489258 -278.68579102 477.89697266 C-279.76944946 476.86515869 -279.76944946 476.86515869 -280.875 475.8125 C-281.62515381 475.1014209 -282.37530762 474.3903418 -283.14819336 473.65771484 C-293.48672324 463.76849614 -303.38243621 453.438421 -312 442 C-312.7415332 441.03465332 -312.7415332 441.03465332 -313.49804688 440.04980469 C-330.85398576 417.41822743 -345.07349533 392.78883632 -355 366 C-355.23227295 365.39454346 -355.4645459 364.78908691 -355.70385742 364.1652832 C-361.34653029 349.39970392 -365.38215412 334.31388891 -368.375 318.8125 C-368.62548096 317.52529053 -368.87596191 316.23808105 -369.1340332 314.91186523 C-374.60731201 285.53511209 -374.89340594 251.35416682 -369 222 C-368.77425293 220.85821289 -368.54850586 219.71642578 -368.31591797 218.54003906 C-360.8341372 181.79200173 -347.37183821 146.94623776 -326 116 C-325.56880859 115.36368652 -325.13761719 114.72737305 -324.69335938 114.07177734 C-318.68518593 105.2233345 -312.03017704 97.05156289 -305 89 C-304.36191406 88.26136719 -303.72382813 87.52273438 -303.06640625 86.76171875 C-301.39003877 84.82983105 -299.69572465 82.91489995 -298 81 C-297.00806641 79.85144531 -297.00806641 79.85144531 -295.99609375 78.6796875 C-286.59245537 67.94709128 -276.00068962 58.96711713 -264.70410156 50.31884766 C-263.10595252 49.08199935 -261.53243973 47.81350204 -259.9609375 46.54296875 C-247.35531043 36.46172437 -233.35451254 28.34258863 -219.3125 20.4375 C-218.27283081 19.84775391 -218.27283081 19.84775391 -217.2121582 19.24609375 C-211.97483175 16.35272361 -206.5759109 14.15220665 -201 12 C-199.23082982 11.28618201 -197.46261667 10.569988 -195.6953125 9.8515625 C-133.04634981 -15.33569476 -64.92593414 -19.26501981 0 0 Z " fill="#FEFEFE" transform="translate(574,216)"/>
<path d="M0 0 C2.93423195 1.79646854 4.47205355 2.9441071 6 6 C6.60812016 12.39695633 6.0343206 17.24525404 3 23 C2.38511719 24.18529297 2.38511719 24.18529297 1.7578125 25.39453125 C-1.67046674 31.83523337 -1.67046674 31.83523337 -4 33 C-4.7425 34.7325 -4.7425 34.7325 -5.5 36.5 C-7 40 -7 40 -9 41 C-9.7425 42.7325 -9.7425 42.7325 -10.5 44.5 C-12 48 -12 48 -14 49 C-14.7425 50.7325 -14.7425 50.7325 -15.5 52.5 C-17 56 -17 56 -19 57 C-19.7425 58.7325 -19.7425 58.7325 -20.5 60.5 C-22 64 -22 64 -24 65 C-24.474375 66.11375 -24.94875 67.2275 -25.4375 68.375 C-27 72 -27 72 -28.31640625 73.3046875 C-30.81280685 75.81846444 -32.60102239 78.77932215 -34.5 81.75 C-34.89058594 82.34554687 -35.28117187 82.94109375 -35.68359375 83.5546875 C-37.63460398 86.58959231 -39.29586222 89.54434451 -40.65625 92.890625 C-42 96 -42 96 -44 97 C-44.474375 98.11375 -44.94875 99.2275 -45.4375 100.375 C-46.8739639 103.70759624 -47.60190359 104.60799013 -50 107 C-51.19599068 109.03232242 -51.19599068 109.03232242 -52.1875 111.1875 C-52.53167969 111.90292969 -52.87585938 112.61835937 -53.23046875 113.35546875 C-53.48441406 113.89816406 -53.73835938 114.44085937 -54 115 C-54.66 115 -55.32 115 -56 115 C-56.21269531 115.63679687 -56.42539062 116.27359375 -56.64453125 116.9296875 C-58.56294857 121.27515152 -61.12168644 125.13608411 -63.6875 129.125 C-64.22697266 129.9701416 -64.76644531 130.8152832 -65.32226562 131.68603516 C-66.39349494 133.36393006 -67.46621113 135.04087676 -68.54052734 136.71679688 C-69.77239341 138.64393161 -70.99420173 140.57648452 -72.20703125 142.515625 C-72.79871094 143.45921875 -73.39039063 144.4028125 -74 145.375 C-74.495 146.16648437 -74.99 146.95796875 -75.5 147.7734375 C-78.5581168 152.31282963 -82.0462223 156.22593946 -86 160 C-86.57621094 160.55945313 -87.15242187 161.11890625 -87.74609375 161.6953125 C-92.71202655 166.31153172 -97.85291666 169.20872236 -104 172 C-104.61488281 172.36738281 -105.22976563 172.73476563 -105.86328125 173.11328125 C-113.96354666 176.47481735 -125.18831978 174.02074797 -133.08984375 171.24609375 C-137.53820874 169.3413576 -141.18817148 166.96406795 -145 164 C-146.0003125 163.22785156 -147.000625 162.45570313 -148.03125 161.66015625 C-150.38983623 159.82473979 -152.7349977 157.97330295 -155.07421875 156.11328125 C-159.27555606 152.77375672 -163.51089954 149.47888062 -167.75 146.1875 C-169.28125202 144.99739843 -170.812502 143.80729424 -172.34375 142.6171875 C-173.89579941 141.41141466 -175.44788285 140.20568564 -177 139 C-179.32173873 137.1964718 -181.6433783 135.39281716 -183.96459961 133.58862305 C-185.47801083 132.41245953 -186.99183993 131.2368335 -188.50610352 130.06176758 C-192.01880262 127.33293546 -195.52074823 124.59270293 -198.99609375 121.81640625 C-199.62161133 121.31842529 -200.24712891 120.82044434 -200.89160156 120.30737305 C-202.03879037 119.39239796 -203.18298956 118.47365346 -204.32324219 117.55004883 C-209.66779879 113.2929309 -215.26215681 108.89680032 -222.36328125 109.234375 C-228.69252011 111.07219843 -233.89906052 115.97131318 -239 120 C-240.06187892 120.81371377 -241.12560681 121.62502187 -242.19140625 122.43359375 C-244.31879342 124.05509411 -246.43895683 125.68280668 -248.55078125 127.32421875 C-252.35197329 130.27776588 -256.17500283 133.20238048 -260 136.125 C-260.70326416 136.6627002 -261.40652832 137.20040039 -262.13110352 137.75439453 C-268.90375709 142.93078205 -275.68606592 148.09448786 -282.46923828 153.25708008 C-286.766434 156.52930389 -291.05729498 159.80884458 -295.32788086 163.11572266 C-297.87720085 165.08775463 -300.43748297 167.04515639 -303 169 C-303.60537598 169.46277344 -304.21075195 169.92554688 -304.83447266 170.40234375 C-324.07036743 185.04162173 -324.07036743 185.04162173 -332.3125 185.5625 C-336.43642885 184.93342611 -338.12202139 183.96519008 -341 181 C-343.41959072 176.16081856 -342.67260628 170.20628065 -342 165 C-340.00791587 159.5714203 -337.12104879 154.83399651 -334 150 C-333.52256348 149.25991699 -333.04512695 148.51983398 -332.55322266 147.75732422 C-329.75771521 143.46482743 -326.9062554 139.21222988 -324.03125 134.97265625 C-319.51013553 128.30018477 -315.09719468 121.5588297 -310.6875 114.8125 C-309.87204964 113.56620377 -309.05653837 112.31994739 -308.2409668 111.07373047 C-306.21511345 107.97762593 -304.19031343 104.88083431 -302.16595459 101.78375244 C-299.63686212 97.91458385 -297.10687629 94.04599927 -294.57714844 90.17724609 C-293.19593787 88.06451992 -291.81507665 85.95156531 -290.43457031 83.83837891 C-287.05450439 78.66547034 -283.6703654 73.49535774 -280.27536011 68.33224487 C-278.57482818 65.74605219 -276.87557555 63.15901978 -275.17626953 60.57202148 C-274.36820507 59.34272515 -273.55947943 58.1138631 -272.75 56.88549805 C-267.97634208 49.6413512 -263.32875851 42.34317383 -258.88134766 34.89355469 C-250.86783523 22.56859371 -240.31049825 13.5549335 -226 10 C-207.06965035 7.99734608 -195.79884028 15.97571802 -181.56640625 27.01025391 C-178.10910078 29.6907181 -174.62647383 32.33735345 -171.14501953 34.98632812 C-169.37896522 36.33083763 -167.61431917 37.67719891 -165.85107422 39.02539062 C-157.71379508 45.2438551 -149.48012883 51.32481693 -141.21484375 57.37158203 C-139.02008255 58.98523472 -136.83673318 60.6132137 -134.65625 62.24609375 C-133.9741748 62.75422607 -133.29209961 63.2623584 -132.58935547 63.78588867 C-131.32478722 64.72842109 -130.06314385 65.67489712 -128.80517578 66.6262207 C-123.34550303 70.6783338 -118.87928184 72.99860543 -112 72 C-102.68731635 67.58436034 -94.42620203 60.15809561 -86.25390625 53.96875 C-81.34426183 50.25148654 -76.39961319 46.58432321 -71.4375 42.9375 C-70.65826172 42.36443115 -69.87902344 41.7913623 -69.07617188 41.20092773 C-67.50393087 40.04499248 -65.93150292 38.88931147 -64.35888672 37.73388672 C-61.19553527 35.40868262 -58.03501035 33.07965492 -54.87475586 30.75024414 C-53.29902429 29.58889741 -51.72301772 28.42792372 -50.14672852 27.26733398 C-46.05923317 24.25747798 -41.97584018 21.24226748 -37.8984375 18.21875 C-37.05732422 17.59613281 -36.21621094 16.97351563 -35.34960938 16.33203125 C-33.75848491 15.1540717 -32.1685411 13.97451483 -30.58007812 12.79296875 C-11.19575794 -1.54424247 -11.19575794 -1.54424247 0 0 Z " fill="#845BDC" transform="translate(660,403)"/>
</svg>
